
<svg width="860" height="230" viewBox="0 0 860 230" xmlns="http://www.w3.org/2000/svg"><defs><clipPath id="satori_bc-id"><path x="0" y="0" width="860" height="230" d="M20,0 h820 a20,20 0 0 1 20,20 v190 a20,20 0 0 1 -20,20 h-820 a20,20 0 0 1 -20,-20 v-190 a20,20 0 0 1 20,-20"/></clipPath></defs><clipPath id="satori_cp-id"><path x="0" y="0" width="860" height="230" d="M20,0 h820 a20,20 0 0 1 20,20 v190 a20,20 0 0 1 -20,20 h-820 a20,20 0 0 1 -20,-20 v-190 a20,20 0 0 1 20,-20"/></clipPath><mask id="satori_om-id"><rect x="1" y="1" width="858" height="228" fill="#fff"/><path width="860" height="230" fill="none" stroke="#000" stroke-width="2" d="M5.8580000000000005,5.8580000000000005 A20,20 0 0 1 20,0 h820 a20,20 0 0 1 20,20 v190 a20,20 0 0 1 -20,20 h-820 a20,20 0 0 1 -20,-20 v-190 A20,20 0 0 1 5.8580000000000005,5.8580000000000005"/></mask><path x="0" y="0" width="860" height="230" fill="#0d0d10" d="M20,0 h820 a20,20 0 0 1 20,20 v190 a20,20 0 0 1 -20,20 h-820 a20,20 0 0 1 -20,-20 v-190 a20,20 0 0 1 20,-20"/><path width="860" height="230" clip-path="url(#satori_bc-id)" fill="none" stroke="rgba(201,209,217,0.1)" stroke-width="2" d="M5.8580000000000005,5.8580000000000005 A20,20 0 0 1 20,0 h820 a20,20 0 0 1 20,20 v190 a20,20 0 0 1 -20,20 h-820 a20,20 0 0 1 -20,-20 v-190 A20,20 0 0 1 5.8580000000000005,5.8580000000000005"/><mask id="satori_om-id-0"><rect x="35" y="27" width="790" height="0" fill="#fff" mask="url(#satori_om-id)"/></mask><g mask="url(#satori_om-id)" clip-path="url(#satori_cp-id)"><path fill="#FF3B30" d="M38.1 31.8L35.4 31.8L35.4 30.3L42.6 30.3L42.6 31.8L39.9 31.8L39.9 39L38.1 39L38.1 31.8ZM48.6 39L46.8 39L46.8 30.3L48.6 30.3L48.6 33.8L52.4 33.8L52.4 30.3L54.2 30.3L54.2 39L52.4 39L52.4 35.3L48.6 35.3L48.6 39ZM64.6 39L58.8 39L58.8 30.3L64.6 30.3L64.6 31.8L60.6 31.8L60.6 33.9L64.3 33.9L64.3 35.3L60.6 35.3L60.6 37.5L64.6 37.5L64.6 39Z M78.1 39.1L78.1 39.1Q77.0 39.1 76.3 38.8Q75.5 38.5 75.1 37.9Q74.6 37.2 74.6 36.3L74.6 36.3L76.3 36.3Q76.4 36.7 76.6 37.0Q76.8 37.3 77.2 37.5Q77.6 37.6 78.1 37.6L78.1 37.6Q78.6 37.6 78.9 37.5Q79.3 37.3 79.5 37.1Q79.7 36.8 79.7 36.5L79.7 36.5Q79.7 36.2 79.5 36.0Q79.3 35.8 79.0 35.7Q78.6 35.5 78.2 35.4L78.2 35.4L77.2 35.2Q76.1 34.9 75.5 34.3Q74.8 33.7 74.8 32.8L74.8 32.8Q74.8 32.0 75.3 31.4Q75.7 30.8 76.4 30.5Q77.2 30.2 78.1 30.2L78.1 30.2Q79.1 30.2 79.8 30.5Q80.5 30.8 80.9 31.4Q81.3 32.0 81.3 32.8L81.3 32.8L79.6 32.8Q79.6 32.2 79.2 31.9Q78.8 31.7 78.1 31.7L78.1 31.7Q77.7 31.7 77.3 31.8Q77.0 31.9 76.8 32.1Q76.7 32.4 76.7 32.7L76.7 32.7Q76.7 33.0 76.9 33.2Q77.1 33.4 77.4 33.5Q77.7 33.7 78.1 33.8L78.1 33.8L78.9 34.0Q79.4 34.1 79.9 34.3Q80.4 34.5 80.7 34.8Q81.1 35.1 81.3 35.5Q81.5 36.0 81.5 36.5L81.5 36.5Q81.5 37.3 81.1 37.9Q80.7 38.5 79.9 38.8Q79.2 39.1 78.1 39.1ZM88.1 31.8L85.4 31.8L85.4 30.3L92.5 30.3L92.5 31.8L89.9 31.8L89.9 39L88.1 39L88.1 31.8ZM98.2 39L96.3 39L99.2 30.3L101.6 30.3L104.6 39L102.7 39L102.0 37.0L98.9 37.0L98.2 39ZM99.3 35.6L101.5 35.6L101.3 34.8Q101.0 34.0 100.7 33L100.7 33Q100.6 32.4 100.4 31.7L100.4 31.7Q100.2 32.4 100.1 33.0L100.1 33.0Q99.8 34.0 99.6 34.8L99.6 34.8L99.3 35.6ZM112.5 39.1L112.5 39.1Q111.4 39.1 110.5 38.6Q109.5 38.1 109.0 37.1Q108.5 36.1 108.5 34.6L108.5 34.6Q108.5 33.2 109.0 32.2Q109.5 31.2 110.5 30.7Q111.4 30.2 112.5 30.2L112.5 30.2Q113.3 30.2 113.9 30.4Q114.6 30.6 115.1 31.0Q115.6 31.4 115.9 31.9Q116.2 32.5 116.3 33.3L116.3 33.3L114.5 33.3Q114.4 32.9 114.3 32.6Q114.1 32.3 113.8 32.1Q113.6 31.9 113.3 31.8Q112.9 31.7 112.6 31.7L112.6 31.7Q111.9 31.7 111.4 32.1Q110.9 32.4 110.6 33.1Q110.3 33.7 110.3 34.6L110.3 34.6Q110.3 35.6 110.6 36.2Q110.9 36.9 111.4 37.2Q111.9 37.5 112.6 37.5L112.6 37.5Q112.9 37.5 113.3 37.4Q113.6 37.3 113.8 37.1Q114.1 36.9 114.3 36.7Q114.4 36.4 114.5 36.0L114.5 36.0L116.3 36.0Q116.2 36.6 115.9 37.2Q115.6 37.7 115.2 38.2Q114.7 38.6 114.0 38.9Q113.4 39.1 112.5 39.1ZM122.4 39L120.6 39L120.6 30.3L122.4 30.3L122.4 32.7L122.4 34.6Q122.4 34.6 122.4 34.5L122.4 34.5Q122.7 34.1 123.0 33.7Q123.3 33.3 123.7 32.8L123.7 32.8L125.9 30.3L128.0 30.3L124.8 34.0L128.1 39L126.0 39L123.5 35.2L122.4 36.5L122.4 39Z "/></g><mask id="satori_om-id-1"><rect x="35" y="41" width="790" height="170" fill="#fff" mask="url(#satori_om-id)"/></mask><mask id="satori_om-id-1-0"><rect x="35" y="41" width="790" height="26" fill="#fff" mask="url(#satori_om-id)"/></mask><mask id="satori_om-id-1-0-0"><rect x="35" y="41" width="790" height="15" fill="#fff" mask="url(#satori_om-id)"/></mask><mask id="satori_om-id-1-0-0-0"><rect x="35" y="41" width="42" height="15" fill="#fff" mask="url(#satori_om-id)"/></mask><g mask="url(#satori_om-id)" clip-path="url(#satori_cp-id)"><path fill="#c9d1d9" d="M37.6 53L35.8 53L35.8 44.3L39.2 44.3Q40.2 44.3 40.9 44.6Q41.6 45.0 42.0 45.7Q42.3 46.4 42.3 47.2L42.3 47.2Q42.3 48.1 41.9 48.7Q41.6 49.4 40.9 49.8Q40.2 50.1 39.2 50.1L39.2 50.1L37.6 50.1L37.6 53ZM37.6 45.7L37.6 48.7L38.9 48.7Q39.4 48.7 39.8 48.5Q40.1 48.3 40.3 48.0Q40.5 47.7 40.5 47.2Q40.5 46.8 40.3 46.4Q40.1 46.1 39.8 45.9Q39.4 45.7 38.9 45.7L38.9 45.7L37.6 45.7ZM43.5 55.3L43.5 55.3L43.9 54.0L44.1 54.0Q44.5 54.1 44.7 54.1Q45.0 54.1 45.2 53.9Q45.3 53.7 45.4 53.4L45.4 53.4L45.4 53.0L43.0 46.4L44.8 46.4L45.9 49.8Q46.1 50.5 46.3 51.1L46.3 51.1Q46.3 51.4 46.3 51.6L46.3 51.6Q46.4 51.4 46.4 51.1L46.4 51.1Q46.6 50.5 46.8 49.8L46.8 49.8L48.0 46.4L49.8 46.4L47.0 53.8Q46.8 54.3 46.5 54.7Q46.2 55.1 45.7 55.3Q45.3 55.5 44.6 55.5L44.6 55.5Q44.3 55.5 44.0 55.4Q43.7 55.4 43.5 55.3ZM52.8 46.4L54.0 46.4L54.0 47.8L52.8 47.8L52.8 51.1Q52.8 51.4 52.9 51.5Q53.1 51.7 53.4 51.7L53.4 51.7Q53.5 51.7 53.7 51.7Q53.8 51.6 53.9 51.6L53.9 51.6L54.2 52.9Q53.9 53.0 53.6 53.1Q53.3 53.1 53.0 53.1L53.0 53.1Q52.1 53.1 51.5 52.6Q51.0 52.1 51.0 51.2L51.0 51.2L51.0 47.8L50.1 47.8L50.1 46.4L51.0 46.4L51.0 44.9L52.8 44.9L52.8 46.4ZM56.9 49.2L56.9 49.2L56.9 53L55.1 53L55.1 44.3L56.9 44.3L56.9 47.7Q57.1 47.2 57.5 46.8L57.5 46.8Q58.0 46.4 58.9 46.4L58.9 46.4Q59.5 46.4 60.1 46.7Q60.6 47.0 60.8 47.5Q61.1 48.1 61.1 48.8L61.1 48.8L61.1 53L59.4 53L59.4 49.1Q59.4 48.5 59.0 48.2Q58.7 47.8 58.2 47.8L58.2 47.8Q57.8 47.8 57.5 48.0Q57.2 48.2 57.1 48.5Q56.9 48.8 56.9 49.2ZM65.5 53.1L65.5 53.1Q64.6 53.1 63.8 52.7Q63.1 52.3 62.7 51.5Q62.3 50.8 62.3 49.8L62.3 49.8Q62.3 48.7 62.7 48.0Q63.1 47.2 63.8 46.8Q64.6 46.4 65.5 46.4L65.5 46.4Q66.5 46.4 67.3 46.8Q68.0 47.2 68.4 48.0Q68.8 48.7 68.8 49.8L68.8 49.8Q68.8 50.8 68.4 51.5Q68.0 52.3 67.3 52.7Q66.5 53.1 65.5 53.1ZM65.5 51.7L65.5 51.7Q66.0 51.7 66.3 51.5Q66.6 51.2 66.8 50.8Q67.0 50.3 67.0 49.7L67.0 49.7Q67.0 49.2 66.8 48.7Q66.6 48.3 66.3 48.0Q66.0 47.8 65.5 47.8L65.5 47.8Q65.1 47.8 64.8 48.0Q64.4 48.3 64.3 48.7Q64.1 49.2 64.1 49.7L64.1 49.7Q64.1 50.3 64.3 50.8Q64.4 51.2 64.8 51.5Q65.1 51.7 65.5 51.7ZM71.7 49.2L71.7 49.2L71.7 53L70.0 53L70.0 46.4L71.6 46.4L71.7 47.8Q71.9 47.2 72.3 46.8L72.3 46.8Q72.9 46.4 73.7 46.4L73.7 46.4Q74.4 46.4 74.9 46.7Q75.4 47.0 75.7 47.5Q75.9 48.1 75.9 48.8L75.9 48.8L75.9 53L74.2 53L74.2 49.1Q74.2 48.5 73.9 48.2Q73.6 47.8 73.0 47.8L73.0 47.8Q72.6 47.8 72.3 48.0Q72.1 48.2 71.9 48.5Q71.7 48.8 71.7 49.2Z "/></g><mask id="satori_om-id-1-0-0-1"><rect x="798" y="41" width="27" height="15" fill="#fff" mask="url(#satori_om-id)"/></mask><g mask="url(#satori_om-id)" clip-path="url(#satori_cp-id)"><path fill="rgba(201,209,217,0.55)" d="M801.5 53.1L801.5 53.1Q800.7 53.1 800.1 52.8Q799.5 52.5 799.1 52.0Q798.8 51.5 798.8 50.8L798.8 50.8L799.8 50.8Q799.9 51.2 800.1 51.5Q800.3 51.8 800.7 52.0Q801.1 52.1 801.5 52.1L801.5 52.1Q802.0 52.1 802.4 51.9Q802.8 51.6 803.1 51.2Q803.3 50.8 803.3 50.2L803.3 50.2Q803.3 49.7 803.1 49.2Q802.8 48.8 802.4 48.5Q802.0 48.3 801.4 48.3L801.4 48.3Q801.0 48.3 800.6 48.4Q800.2 48.5 799.9 48.7L799.9 48.7L798.9 48.6L799.4 44.3L804.0 44.3L804.0 45.2L800.3 45.2L800.0 47.8L800.1 47.8Q800.4 47.6 800.8 47.4Q801.2 47.3 801.6 47.3L801.6 47.3Q802.2 47.3 802.7 47.5Q803.2 47.7 803.6 48.1Q804.0 48.5 804.2 49.0Q804.4 49.6 804.4 50.2L804.4 50.2Q804.4 51.0 804.0 51.7Q803.6 52.4 803.0 52.7Q802.3 53.1 801.5 53.1ZM808.9 53.1L808.9 53.1Q808.4 53.1 807.8 52.9Q807.3 52.7 806.8 52.3Q806.4 51.8 806.1 51.0Q805.8 50.2 805.8 49.0L805.8 49.0Q805.8 47.8 806.1 46.9Q806.3 46.0 806.7 45.4Q807.1 44.8 807.7 44.5Q808.3 44.2 809.0 44.2L809.0 44.2Q809.8 44.2 810.4 44.4Q810.9 44.7 811.3 45.3Q811.7 45.8 811.8 46.5L811.8 46.5L810.7 46.5Q810.5 45.9 810.1 45.5Q809.7 45.1 809.0 45.1L809.0 45.1Q808.4 45.1 807.9 45.5Q807.4 45.9 807.1 46.7Q806.9 47.4 806.9 48.5L806.9 48.5L807.0 48.5Q807.2 48.1 807.5 47.8Q807.8 47.6 808.3 47.4Q808.7 47.3 809.1 47.3L809.1 47.3Q809.9 47.3 810.5 47.7Q811.1 48.0 811.5 48.7Q811.8 49.3 811.8 50.2L811.8 50.2Q811.8 51.0 811.5 51.7Q811.1 52.3 810.5 52.7Q809.8 53.1 808.9 53.1ZM808.9 52.1L808.9 52.1Q809.4 52.1 809.9 51.9Q810.3 51.6 810.5 51.2Q810.8 50.7 810.8 50.2L810.8 50.2Q810.8 49.6 810.5 49.2Q810.3 48.8 809.9 48.5Q809.5 48.3 808.9 48.3L808.9 48.3Q808.5 48.3 808.2 48.4Q807.8 48.6 807.6 48.8Q807.3 49.1 807.2 49.5Q807.0 49.8 807.0 50.2L807.0 50.2Q807.0 50.7 807.3 51.2Q807.5 51.6 807.9 51.9Q808.4 52.1 808.9 52.1ZM815.6 48.1L815.6 48.1Q815.1 48.1 814.7 47.9Q814.3 47.6 814.1 47.2Q813.9 46.8 813.9 46.4L813.9 46.4L813.9 45.9Q813.9 45.4 814.1 45.0Q814.3 44.6 814.7 44.4Q815.1 44.1 815.6 44.1L815.6 44.1Q816.2 44.1 816.6 44.4Q816.9 44.6 817.1 45.0Q817.3 45.4 817.3 45.9L817.3 45.9L817.3 46.4Q817.3 46.8 817.1 47.2Q816.9 47.6 816.6 47.9Q816.2 48.1 815.6 48.1ZM815.6 47.4L815.6 47.4Q816.1 47.4 816.3 47.1Q816.4 46.7 816.4 46.4L816.4 46.4L816.4 45.9Q816.4 45.5 816.3 45.2Q816.1 44.9 815.6 44.9L815.6 44.9Q815.2 44.9 815.0 45.2Q814.8 45.5 814.8 45.9L814.8 45.9L814.8 46.4Q814.8 46.7 815.0 47.1Q815.2 47.4 815.6 47.4ZM821.3 53.2L821.3 53.2Q820.7 53.2 820.4 52.9Q820.0 52.7 819.8 52.3Q819.6 51.9 819.6 51.4L819.6 51.4L819.6 50.9Q819.6 50.5 819.8 50.1Q820.0 49.7 820.4 49.4Q820.7 49.2 821.3 49.2L821.3 49.2Q821.9 49.2 822.2 49.4Q822.6 49.7 822.8 50.1Q823.0 50.5 823.0 50.9L823.0 50.9L823.0 51.4Q823.0 51.9 822.8 52.3Q822.6 52.7 822.2 52.9Q821.8 53.2 821.3 53.2ZM821.3 52.4L821.3 52.4Q821.7 52.4 821.9 52.1Q822.1 51.8 822.1 51.4L822.1 51.4L822.1 50.9Q822.1 50.6 821.9 50.2Q821.7 49.9 821.3 49.9L821.3 49.9Q820.9 49.9 820.7 50.2Q820.5 50.6 820.5 50.9L820.5 50.9L820.5 51.4Q820.5 51.8 820.7 52.1Q820.8 52.4 821.3 52.4ZM815.9 53L814.9 53L820.9 44.3L821.9 44.3L815.9 53Z "/></g><clipPath id="satori_cp-id-1-0-1" clip-path="url(#satori_cp-id)"><path x="35" y="59" width="790" height="8" d="M39,59 h782 a4,4 0 0 1 4,4 v0 a4,4 0 0 1 -4,4 h-782 a4,4 0 0 1 -4,-4 v0 a4,4 0 0 1 4,-4"/></clipPath><mask id="satori_om-id-1-0-1"><rect x="35" y="59" width="790" height="8" fill="#fff" mask="url(#satori_om-id)"/></mask><path x="35" y="59" width="790" height="8" fill="rgba(201,209,217,0.08)" d="M39,59 h782 a4,4 0 0 1 4,4 v0 a4,4 0 0 1 -4,4 h-782 a4,4 0 0 1 -4,-4 v0 a4,4 0 0 1 4,-4" clip-path="url(#satori_cp-id)" mask="url(#satori_om-id)"/><mask id="satori_om-id-1-0-1-0"><rect x="35" y="59" width="442" height="8" fill="#fff" mask="url(#satori_om-id-1-0-1)"/></mask><path x="35" y="59" width="442" height="8" fill="#3572A5" d="M39,59 h434 a4,4 0 0 1 4,4 v0 a4,4 0 0 1 -4,4 h-434 a4,4 0 0 1 -4,-4 v0 a4,4 0 0 1 4,-4" clip-path="url(#satori_cp-id-1-0-1)" mask="url(#satori_om-id-1-0-1)"/><mask id="satori_om-id-1-1"><rect x="35" y="77" width="790" height="26" fill="#fff" mask="url(#satori_om-id)"/></mask><mask id="satori_om-id-1-1-0"><rect x="35" y="77" width="790" height="15" fill="#fff" mask="url(#satori_om-id)"/></mask><mask id="satori_om-id-1-1-0-0"><rect x="35" y="77" width="29" height="15" fill="#fff" mask="url(#satori_om-id)"/></mask><g mask="url(#satori_om-id)" clip-path="url(#satori_cp-id)"><path fill="#c9d1d9" d="M38.3 89.1L38.3 89.1Q37.0 89.1 36.2 88.4Q35.4 87.7 35.4 86.4L35.4 86.4L35.4 85.9L37.2 85.9L37.2 86.4Q37.2 87.0 37.5 87.4Q37.8 87.7 38.3 87.7L38.3 87.7Q38.8 87.7 39.1 87.4Q39.5 87.0 39.5 86.4L39.5 86.4L39.5 80.3L41.2 80.3L41.2 86.4Q41.2 87.7 40.4 88.4Q39.7 89.1 38.3 89.1ZM44.6 89.1L44.6 89.1Q44.0 89.1 43.5 88.9Q43.0 88.7 42.7 88.3Q42.4 87.8 42.4 87.2L42.4 87.2Q42.4 86.6 42.6 86.3Q42.8 85.9 43.2 85.7Q43.5 85.4 44.0 85.3Q44.4 85.2 44.9 85.2L44.9 85.2Q45.5 85.1 45.8 85.0Q46.2 85.0 46.3 84.9Q46.5 84.8 46.5 84.6L46.5 84.6L46.5 84.5Q46.5 84.3 46.4 84.1Q46.2 83.9 46.0 83.8Q45.8 83.7 45.4 83.7L45.4 83.7Q45.1 83.7 44.9 83.8Q44.6 83.9 44.4 84.0Q44.3 84.2 44.2 84.4L44.2 84.4L42.6 84.2Q42.8 83.6 43.2 83.2Q43.6 82.8 44.1 82.6Q44.7 82.4 45.5 82.4L45.5 82.4Q46.0 82.4 46.5 82.5Q47.0 82.6 47.4 82.9Q47.8 83.1 48.0 83.6Q48.2 84.0 48.2 84.6L48.2 84.6L48.2 89L46.6 89L46.6 88.1L46.5 88.1Q46.3 88.4 46.1 88.6Q45.8 88.9 45.5 89.0Q45.1 89.1 44.6 89.1ZM45.1 87.9L45.1 87.9Q45.5 87.9 45.8 87.7Q46.1 87.6 46.3 87.3Q46.5 87.0 46.5 86.7L46.5 86.7L46.5 85.9Q46.4 86.0 46.3 86.1Q46.1 86.1 45.9 86.1Q45.7 86.2 45.5 86.2Q45.3 86.2 45.2 86.2L45.2 86.2Q44.9 86.3 44.6 86.4Q44.4 86.5 44.2 86.7Q44.1 86.8 44.1 87.1L44.1 87.1Q44.1 87.4 44.2 87.5Q44.4 87.7 44.6 87.8Q44.8 87.9 45.1 87.9ZM53.6 89L51.6 89L49.2 82.4L51.0 82.4L52.1 85.8Q52.3 86.5 52.5 87.1L52.5 87.1Q52.5 87.4 52.6 87.6L52.6 87.6Q52.7 87.4 52.7 87.1L52.7 87.1Q52.9 86.5 53.1 85.8L53.1 85.8L54.1 82.4L56.0 82.4L53.6 89ZM58.8 89.1L58.8 89.1Q58.1 89.1 57.6 88.9Q57.1 88.7 56.9 88.3Q56.6 87.8 56.6 87.2L56.6 87.2Q56.6 86.6 56.8 86.3Q57.0 85.9 57.3 85.7Q57.7 85.4 58.1 85.3Q58.6 85.2 59.0 85.2L59.0 85.2Q59.6 85.1 60.0 85.0Q60.3 85.0 60.5 84.9Q60.6 84.8 60.6 84.6L60.6 84.6L60.6 84.5Q60.6 84.3 60.5 84.1Q60.4 83.9 60.2 83.8Q59.9 83.7 59.6 83.7L59.6 83.7Q59.3 83.7 59.0 83.8Q58.8 83.9 58.6 84.0Q58.4 84.2 58.4 84.4L58.4 84.4L56.8 84.2Q56.9 83.6 57.3 83.2Q57.7 82.8 58.3 82.6Q58.9 82.4 59.6 82.4L59.6 82.4Q60.1 82.4 60.6 82.5Q61.1 82.6 61.5 82.9Q61.9 83.1 62.2 83.6Q62.4 84.0 62.4 84.6L62.4 84.6L62.4 89L60.7 89L60.7 88.1L60.7 88.1Q60.5 88.4 60.2 88.6Q60.0 88.9 59.6 89.0Q59.2 89.1 58.8 89.1ZM59.3 87.9L59.3 87.9Q59.7 87.9 60.0 87.7Q60.3 87.6 60.5 87.3Q60.6 87.0 60.6 86.7L60.6 86.7L60.6 85.9Q60.6 86.0 60.4 86.1Q60.3 86.1 60.1 86.1Q59.9 86.2 59.7 86.2Q59.5 86.2 59.3 86.2L59.3 86.2Q59.0 86.3 58.8 86.4Q58.5 86.5 58.4 86.7Q58.3 86.8 58.3 87.1L58.3 87.1Q58.3 87.4 58.4 87.5Q58.5 87.7 58.7 87.8Q59.0 87.9 59.3 87.9Z "/></g><mask id="satori_om-id-1-1-0-1"><rect x="803" y="77" width="22" height="15" fill="#fff" mask="url(#satori_om-id)"/></mask><g mask="url(#satori_om-id)" clip-path="url(#satori_cp-id)"><path fill="rgba(201,209,217,0.55)" d="M805.5 80.3L806.8 80.3L806.8 89L805.7 89L805.7 81.3L805.7 81.3L803.6 82.9L803.6 81.7L805.5 80.3ZM810.3 80.3L811.7 80.3L811.7 89L810.6 89L810.6 81.3L810.6 81.3L808.4 82.9L808.4 81.7L810.3 80.3ZM815.8 84.1L815.8 84.1Q815.3 84.1 814.9 83.9Q814.5 83.6 814.3 83.2Q814.1 82.8 814.1 82.4L814.1 82.4L814.1 81.9Q814.1 81.4 814.3 81.0Q814.5 80.6 814.9 80.4Q815.3 80.1 815.8 80.1L815.8 80.1Q816.4 80.1 816.8 80.4Q817.1 80.6 817.3 81.0Q817.5 81.4 817.5 81.9L817.5 81.9L817.5 82.4Q817.5 82.8 817.3 83.2Q817.1 83.6 816.8 83.9Q816.4 84.1 815.8 84.1ZM815.8 83.4L815.8 83.4Q816.3 83.4 816.5 83.1Q816.6 82.7 816.6 82.4L816.6 82.4L816.6 81.9Q816.6 81.5 816.5 81.2Q816.3 80.9 815.8 80.9L815.8 80.9Q815.4 80.9 815.2 81.2Q815.0 81.5 815.0 81.9L815.0 81.9L815.0 82.4Q815.0 82.7 815.2 83.1Q815.4 83.4 815.8 83.4ZM821.5 89.2L821.5 89.2Q820.9 89.2 820.6 88.9Q820.2 88.7 820.0 88.3Q819.8 87.9 819.8 87.4L819.8 87.4L819.8 86.9Q819.8 86.5 820.0 86.1Q820.2 85.7 820.6 85.4Q820.9 85.2 821.5 85.2L821.5 85.2Q822.1 85.2 822.4 85.4Q822.8 85.7 823.0 86.1Q823.2 86.5 823.2 86.9L823.2 86.9L823.2 87.4Q823.2 87.9 823.0 88.3Q822.8 88.7 822.4 88.9Q822.0 89.2 821.5 89.2ZM821.5 88.4L821.5 88.4Q821.9 88.4 822.1 88.1Q822.3 87.8 822.3 87.4L822.3 87.4L822.3 86.9Q822.3 86.6 822.1 86.2Q821.9 85.9 821.5 85.9L821.5 85.9Q821.1 85.9 820.9 86.2Q820.7 86.6 820.7 86.9L820.7 86.9L820.7 87.4Q820.7 87.8 820.9 88.1Q821.0 88.4 821.5 88.4ZM816.1 89L815.1 89L821.1 80.3L822.1 80.3L816.1 89Z "/></g><clipPath id="satori_cp-id-1-1-1" clip-path="url(#satori_cp-id)"><path x="35" y="95" width="790" height="8" d="M39,95 h782 a4,4 0 0 1 4,4 v0 a4,4 0 0 1 -4,4 h-782 a4,4 0 0 1 -4,-4 v0 a4,4 0 0 1 4,-4"/></clipPath><mask id="satori_om-id-1-1-1"><rect x="35" y="95" width="790" height="8" fill="#fff" mask="url(#satori_om-id)"/></mask><path x="35" y="95" width="790" height="8" fill="rgba(201,209,217,0.08)" d="M39,95 h782 a4,4 0 0 1 4,4 v0 a4,4 0 0 1 -4,4 h-782 a4,4 0 0 1 -4,-4 v0 a4,4 0 0 1 4,-4" clip-path="url(#satori_cp-id)" mask="url(#satori_om-id)"/><mask id="satori_om-id-1-1-1-0"><rect x="35" y="95" width="87" height="8" fill="#fff" mask="url(#satori_om-id-1-1-1)"/></mask><path x="35" y="95" width="87" height="8" fill="#b07219" d="M39,95 h79 a4,4 0 0 1 4,4 v0 a4,4 0 0 1 -4,4 h-79 a4,4 0 0 1 -4,-4 v0 a4,4 0 0 1 4,-4" clip-path="url(#satori_cp-id-1-1-1)" mask="url(#satori_om-id-1-1-1)"/><mask id="satori_om-id-1-2"><rect x="35" y="113" width="790" height="26" fill="#fff" mask="url(#satori_om-id)"/></mask><mask id="satori_om-id-1-2-0"><rect x="35" y="113" width="790" height="15" fill="#fff" mask="url(#satori_om-id)"/></mask><mask id="satori_om-id-1-2-0-0"><rect x="35" y="113" width="17" height="15" fill="#fff" mask="url(#satori_om-id)"/></mask><g mask="url(#satori_om-id)" clip-path="url(#satori_cp-id)"><path fill="#c9d1d9" d="M39.6 125.1L39.6 125.1Q38.4 125.1 37.5 124.6Q36.6 124.1 36.1 123.1Q35.6 122.1 35.6 120.6L35.6 120.6Q35.6 119.2 36.1 118.2Q36.6 117.2 37.5 116.7Q38.5 116.2 39.6 116.2L39.6 116.2Q40.3 116.2 41.0 116.4Q41.6 116.6 42.1 117.0Q42.6 117.4 42.9 117.9Q43.3 118.5 43.4 119.3L43.4 119.3L41.6 119.3Q41.5 118.9 41.3 118.6Q41.2 118.3 40.9 118.1Q40.7 117.9 40.3 117.8Q40.0 117.7 39.6 117.7L39.6 117.7Q39.0 117.7 38.4 118.1Q37.9 118.4 37.7 119.1Q37.4 119.7 37.4 120.6L37.4 120.6Q37.4 121.6 37.7 122.2Q37.9 122.9 38.5 123.2Q39.0 123.5 39.6 123.5L39.6 123.5Q40.0 123.5 40.3 123.4Q40.6 123.3 40.9 123.1Q41.2 122.9 41.3 122.7Q41.5 122.4 41.6 122.0L41.6 122.0L43.4 122.0Q43.3 122.6 43.0 123.2Q42.7 123.7 42.2 124.2Q41.8 124.6 41.1 124.9Q40.4 125.1 39.6 125.1ZM49.3 125L47.9 125L48.3 122.8L46.5 122.8L46.2 125L44.9 125L45.2 122.8L44.0 122.8L44.2 121.5L45.4 121.5L45.7 119.8L44.5 119.8L44.7 118.5L45.9 118.5L46.3 116.3L47.6 116.3L47.3 118.5L49.0 118.5L49.4 116.3L50.7 116.3L50.3 118.5L51.5 118.5L51.3 119.8L50.1 119.8L49.8 121.5L51.0 121.5L50.8 122.8L49.6 122.8L49.3 125ZM47.0 119.8L46.8 121.5L48.5 121.5L48.8 119.8L47.0 119.8Z "/></g><mask id="satori_om-id-1-2-0-1"><rect x="803" y="113" width="22" height="15" fill="#fff" mask="url(#satori_om-id)"/></mask><g mask="url(#satori_om-id)" clip-path="url(#satori_cp-id)"><path fill="rgba(201,209,217,0.55)" d="M805.5 116.3L806.8 116.3L806.8 125L805.7 125L805.7 117.3L805.7 117.3L803.6 118.9L803.6 117.7L805.5 116.3ZM810.3 116.3L811.7 116.3L811.7 125L810.6 125L810.6 117.3L810.6 117.3L808.4 118.9L808.4 117.7L810.3 116.3ZM815.8 120.1L815.8 120.1Q815.3 120.1 814.9 119.9Q814.5 119.6 814.3 119.2Q814.1 118.8 814.1 118.4L814.1 118.4L814.1 117.9Q814.1 117.4 814.3 117.0Q814.5 116.6 814.9 116.4Q815.3 116.1 815.8 116.1L815.8 116.1Q816.4 116.1 816.8 116.4Q817.1 116.6 817.3 117.0Q817.5 117.4 817.5 117.9L817.5 117.9L817.5 118.4Q817.5 118.8 817.3 119.2Q817.1 119.6 816.8 119.9Q816.4 120.1 815.8 120.1ZM815.8 119.4L815.8 119.4Q816.3 119.4 816.5 119.1Q816.6 118.7 816.6 118.4L816.6 118.4L816.6 117.9Q816.6 117.5 816.5 117.2Q816.3 116.9 815.8 116.9L815.8 116.9Q815.4 116.9 815.2 117.2Q815.0 117.5 815.0 117.9L815.0 117.9L815.0 118.4Q815.0 118.7 815.2 119.1Q815.4 119.4 815.8 119.4ZM821.5 125.2L821.5 125.2Q820.9 125.2 820.6 124.9Q820.2 124.7 820.0 124.3Q819.8 123.9 819.8 123.4L819.8 123.4L819.8 122.9Q819.8 122.5 820.0 122.1Q820.2 121.7 820.6 121.4Q820.9 121.2 821.5 121.2L821.5 121.2Q822.1 121.2 822.4 121.4Q822.8 121.7 823.0 122.1Q823.2 122.5 823.2 122.9L823.2 122.9L823.2 123.4Q823.2 123.9 823.0 124.3Q822.8 124.7 822.4 124.9Q822.0 125.2 821.5 125.2ZM821.5 124.4L821.5 124.4Q821.9 124.4 822.1 124.1Q822.3 123.8 822.3 123.4L822.3 123.4L822.3 122.9Q822.3 122.6 822.1 122.2Q821.9 121.9 821.5 121.9L821.5 121.9Q821.1 121.9 820.9 122.2Q820.7 122.6 820.7 122.9L820.7 122.9L820.7 123.4Q820.7 123.8 820.9 124.1Q821.0 124.4 821.5 124.4ZM816.1 125L815.1 125L821.1 116.3L822.1 116.3L816.1 125Z "/></g><clipPath id="satori_cp-id-1-2-1" clip-path="url(#satori_cp-id)"><path x="35" y="131" width="790" height="8" d="M39,131 h782 a4,4 0 0 1 4,4 v0 a4,4 0 0 1 -4,4 h-782 a4,4 0 0 1 -4,-4 v0 a4,4 0 0 1 4,-4"/></clipPath><mask id="satori_om-id-1-2-1"><rect x="35" y="131" width="790" height="8" fill="#fff" mask="url(#satori_om-id)"/></mask><path x="35" y="131" width="790" height="8" fill="rgba(201,209,217,0.08)" d="M39,131 h782 a4,4 0 0 1 4,4 v0 a4,4 0 0 1 -4,4 h-782 a4,4 0 0 1 -4,-4 v0 a4,4 0 0 1 4,-4" clip-path="url(#satori_cp-id)" mask="url(#satori_om-id)"/><mask id="satori_om-id-1-2-1-0"><rect x="35" y="131" width="87" height="8" fill="#fff" mask="url(#satori_om-id-1-2-1)"/></mask><path x="35" y="131" width="87" height="8" fill="#178600" d="M39,131 h79 a4,4 0 0 1 4,4 v0 a4,4 0 0 1 -4,4 h-79 a4,4 0 0 1 -4,-4 v0 a4,4 0 0 1 4,-4" clip-path="url(#satori_cp-id-1-2-1)" mask="url(#satori_om-id-1-2-1)"/><mask id="satori_om-id-1-3"><rect x="35" y="149" width="790" height="26" fill="#fff" mask="url(#satori_om-id)"/></mask><mask id="satori_om-id-1-3-0"><rect x="35" y="149" width="790" height="15" fill="#fff" mask="url(#satori_om-id)"/></mask><mask id="satori_om-id-1-3-0-0"><rect x="35" y="149" width="35" height="15" fill="#fff" mask="url(#satori_om-id)"/></mask><g mask="url(#satori_om-id)" clip-path="url(#satori_cp-id)"><path fill="#c9d1d9" d="M37.6 161L35.8 161L35.8 152.3L37.6 152.3L37.6 154.7L37.6 156.6Q37.6 156.6 37.6 156.5L37.6 156.5Q37.9 156.1 38.2 155.7Q38.5 155.3 38.9 154.8L38.9 154.8L41.1 152.3L43.2 152.3L40.0 156.0L43.3 161L41.2 161L38.7 157.2L37.6 158.5L37.6 161ZM47.3 161.1L47.3 161.1Q46.3 161.1 45.6 160.7Q44.9 160.3 44.5 159.5Q44.1 158.8 44.1 157.8L44.1 157.8Q44.1 156.7 44.5 156.0Q44.9 155.2 45.6 154.8Q46.3 154.4 47.3 154.4L47.3 154.4Q48.3 154.4 49.0 154.8Q49.7 155.2 50.1 156.0Q50.5 156.7 50.5 157.8L50.5 157.8Q50.5 158.8 50.1 159.5Q49.7 160.3 49.0 160.7Q48.3 161.1 47.3 161.1ZM47.3 159.7L47.3 159.7Q47.8 159.7 48.1 159.5Q48.4 159.2 48.6 158.8Q48.7 158.3 48.7 157.7L48.7 157.7Q48.7 157.2 48.6 156.7Q48.4 156.3 48.1 156.0Q47.8 155.8 47.3 155.8L47.3 155.8Q46.8 155.8 46.5 156.0Q46.2 156.3 46.1 156.7Q45.9 157.2 45.9 157.7L45.9 157.7Q45.9 158.3 46.1 158.8Q46.2 159.2 46.5 159.5Q46.8 159.7 47.3 159.7ZM53.8 154.4L55.0 154.4L55.0 155.8L53.8 155.8L53.8 159.1Q53.8 159.4 53.9 159.5Q54.0 159.7 54.4 159.7L54.4 159.7Q54.5 159.7 54.6 159.7Q54.8 159.6 54.9 159.6L54.9 159.6L55.2 160.9Q54.9 161.0 54.6 161.1Q54.3 161.1 54.0 161.1L54.0 161.1Q53.1 161.1 52.5 160.6Q52.0 160.1 52.0 159.2L52.0 159.2L52.0 155.8L51.1 155.8L51.1 154.4L52.0 154.4L52.0 152.9L53.8 152.9L53.8 154.4ZM56.1 152.3L57.9 152.3L57.9 161L56.1 161L56.1 152.3ZM61.1 161L59.4 161L59.4 154.4L61.1 154.4L61.1 161ZM60.3 153.6L60.3 153.6Q59.9 153.6 59.6 153.3Q59.3 153.1 59.3 152.7L59.3 152.7Q59.3 152.3 59.6 152.1Q59.9 151.8 60.3 151.8L60.3 151.8Q60.7 151.8 60.9 152.0Q61.2 152.3 61.2 152.7L61.2 152.7Q61.2 153.1 60.9 153.3Q60.7 153.6 60.3 153.6ZM64.4 157.2L64.4 157.2L64.4 161L62.6 161L62.6 154.4L64.3 154.4L64.3 155.8Q64.6 155.2 65.0 154.8L65.0 154.8Q65.5 154.4 66.4 154.4L66.4 154.4Q67.0 154.4 67.5 154.7Q68.1 155.0 68.3 155.5Q68.6 156.1 68.6 156.8L68.6 156.8L68.6 161L66.9 161L66.9 157.1Q66.9 156.5 66.5 156.2Q66.2 155.8 65.7 155.8L65.7 155.8Q65.3 155.8 65.0 156.0Q64.7 156.2 64.6 156.5Q64.4 156.8 64.4 157.2Z "/></g><mask id="satori_om-id-1-3-0-1"><rect x="803" y="149" width="22" height="15" fill="#fff" mask="url(#satori_om-id)"/></mask><g mask="url(#satori_om-id)" clip-path="url(#satori_cp-id)"><path fill="rgba(201,209,217,0.55)" d="M805.5 152.3L806.8 152.3L806.8 161L805.7 161L805.7 153.3L805.7 153.3L803.6 154.9L803.6 153.7L805.5 152.3ZM810.3 152.3L811.7 152.3L811.7 161L810.6 161L810.6 153.3L810.6 153.3L808.4 154.9L808.4 153.7L810.3 152.3ZM815.8 156.1L815.8 156.1Q815.3 156.1 814.9 155.9Q814.5 155.6 814.3 155.2Q814.1 154.8 814.1 154.4L814.1 154.4L814.1 153.9Q814.1 153.4 814.3 153.0Q814.5 152.6 814.9 152.4Q815.3 152.1 815.8 152.1L815.8 152.1Q816.4 152.1 816.8 152.4Q817.1 152.6 817.3 153.0Q817.5 153.4 817.5 153.9L817.5 153.9L817.5 154.4Q817.5 154.8 817.3 155.2Q817.1 155.6 816.8 155.9Q816.4 156.1 815.8 156.1ZM815.8 155.4L815.8 155.4Q816.3 155.4 816.5 155.1Q816.6 154.7 816.6 154.4L816.6 154.4L816.6 153.9Q816.6 153.5 816.5 153.2Q816.3 152.9 815.8 152.9L815.8 152.9Q815.4 152.9 815.2 153.2Q815.0 153.5 815.0 153.9L815.0 153.9L815.0 154.4Q815.0 154.7 815.2 155.1Q815.4 155.4 815.8 155.4ZM821.5 161.2L821.5 161.2Q820.9 161.2 820.6 160.9Q820.2 160.7 820.0 160.3Q819.8 159.9 819.8 159.4L819.8 159.4L819.8 158.9Q819.8 158.5 820.0 158.1Q820.2 157.7 820.6 157.4Q820.9 157.2 821.5 157.2L821.5 157.2Q822.1 157.2 822.4 157.4Q822.8 157.7 823.0 158.1Q823.2 158.5 823.2 158.9L823.2 158.9L823.2 159.4Q823.2 159.9 823.0 160.3Q822.8 160.7 822.4 160.9Q822.0 161.2 821.5 161.2ZM821.5 160.4L821.5 160.4Q821.9 160.4 822.1 160.1Q822.3 159.8 822.3 159.4L822.3 159.4L822.3 158.9Q822.3 158.6 822.1 158.2Q821.9 157.9 821.5 157.9L821.5 157.9Q821.1 157.9 820.9 158.2Q820.7 158.6 820.7 158.9L820.7 158.9L820.7 159.4Q820.7 159.8 820.9 160.1Q821.0 160.4 821.5 160.4ZM816.1 161L815.1 161L821.1 152.3L822.1 152.3L816.1 161Z "/></g><clipPath id="satori_cp-id-1-3-1" clip-path="url(#satori_cp-id)"><path x="35" y="167" width="790" height="8" d="M39,167 h782 a4,4 0 0 1 4,4 v0 a4,4 0 0 1 -4,4 h-782 a4,4 0 0 1 -4,-4 v0 a4,4 0 0 1 4,-4"/></clipPath><mask id="satori_om-id-1-3-1"><rect x="35" y="167" width="790" height="8" fill="#fff" mask="url(#satori_om-id)"/></mask><path x="35" y="167" width="790" height="8" fill="rgba(201,209,217,0.08)" d="M39,167 h782 a4,4 0 0 1 4,4 v0 a4,4 0 0 1 -4,4 h-782 a4,4 0 0 1 -4,-4 v0 a4,4 0 0 1 4,-4" clip-path="url(#satori_cp-id)" mask="url(#satori_om-id)"/><mask id="satori_om-id-1-3-1-0"><rect x="35" y="167" width="87" height="8" fill="#fff" mask="url(#satori_om-id-1-3-1)"/></mask><path x="35" y="167" width="87" height="8" fill="#A97BFF" d="M39,167 h79 a4,4 0 0 1 4,4 v0 a4,4 0 0 1 -4,4 h-79 a4,4 0 0 1 -4,-4 v0 a4,4 0 0 1 4,-4" clip-path="url(#satori_cp-id-1-3-1)" mask="url(#satori_om-id-1-3-1)"/><mask id="satori_om-id-1-4"><rect x="35" y="185" width="790" height="26" fill="#fff" mask="url(#satori_om-id)"/></mask><mask id="satori_om-id-1-4-0"><rect x="35" y="185" width="790" height="15" fill="#fff" mask="url(#satori_om-id)"/></mask><mask id="satori_om-id-1-4-0-0"><rect x="35" y="185" width="35" height="15" fill="#fff" mask="url(#satori_om-id)"/></mask><g mask="url(#satori_om-id)" clip-path="url(#satori_cp-id)"><path fill="#c9d1d9" d="M37.6 197L35.8 197L35.8 188.3L37.6 188.3L37.6 191.8L41.4 191.8L41.4 188.3L43.2 188.3L43.2 197L41.4 197L41.4 193.3L37.6 193.3L37.6 197ZM47.1 189.8L44.4 189.8L44.4 188.3L51.5 188.3L51.5 189.8L48.9 189.8L48.9 197L47.1 197L47.1 189.8ZM54.5 197L52.8 197L52.8 188.3L55.5 188.3L56.9 192.3Q57.0 192.6 57.1 193.0Q57.2 193.4 57.4 194.0L57.4 194.0Q57.5 194.5 57.6 194.9L57.6 194.9Q57.7 194.5 57.8 194.0L57.8 194.0Q57.9 193.5 58.0 193.0Q58.1 192.6 58.2 192.3L58.2 192.3L59.6 188.3L62.4 188.3L62.4 197L60.6 197L60.6 192.9Q60.6 192.6 60.6 192.2Q60.6 191.7 60.6 191.2Q60.6 190.8 60.6 190.3L60.6 190.3Q60.6 190.0 60.6 189.8L60.6 189.8Q60.6 190.1 60.5 190.3L60.5 190.3Q60.4 190.8 60.2 191.3Q60.1 191.8 60.0 192.2Q59.9 192.6 59.8 192.9L59.8 192.9L58.3 197L56.8 197L55.3 192.9Q55.3 192.6 55.1 192.2Q55.0 191.8 54.9 191.3Q54.7 190.8 54.6 190.3L54.6 190.3Q54.5 190.1 54.5 189.9L54.5 189.9Q54.5 190.0 54.5 190.2L54.5 190.2Q54.5 190.7 54.5 191.2Q54.5 191.7 54.5 192.2Q54.5 192.6 54.5 192.9L54.5 192.9L54.5 197ZM69.5 197L63.9 197L63.9 188.3L65.7 188.3L65.7 195.5L69.5 195.5L69.5 197Z "/></g><mask id="satori_om-id-1-4-0-1"><rect x="803" y="185" width="22" height="15" fill="#fff" mask="url(#satori_om-id)"/></mask><g mask="url(#satori_om-id)" clip-path="url(#satori_cp-id)"><path fill="rgba(201,209,217,0.55)" d="M805.5 188.3L806.8 188.3L806.8 197L805.7 197L805.7 189.3L805.7 189.3L803.6 190.9L803.6 189.7L805.5 188.3ZM810.3 188.3L811.7 188.3L811.7 197L810.6 197L810.6 189.3L810.6 189.3L808.4 190.9L808.4 189.7L810.3 188.3ZM815.8 192.1L815.8 192.1Q815.3 192.1 814.9 191.9Q814.5 191.6 814.3 191.2Q814.1 190.8 814.1 190.4L814.1 190.4L814.1 189.9Q814.1 189.4 814.3 189.0Q814.5 188.6 814.9 188.4Q815.3 188.1 815.8 188.1L815.8 188.1Q816.4 188.1 816.8 188.4Q817.1 188.6 817.3 189.0Q817.5 189.4 817.5 189.9L817.5 189.9L817.5 190.4Q817.5 190.8 817.3 191.2Q817.1 191.6 816.8 191.9Q816.4 192.1 815.8 192.1ZM815.8 191.4L815.8 191.4Q816.3 191.4 816.5 191.1Q816.6 190.7 816.6 190.4L816.6 190.4L816.6 189.9Q816.6 189.5 816.5 189.2Q816.3 188.9 815.8 188.9L815.8 188.9Q815.4 188.9 815.2 189.2Q815.0 189.5 815.0 189.9L815.0 189.9L815.0 190.4Q815.0 190.7 815.2 191.1Q815.4 191.4 815.8 191.4ZM821.5 197.2L821.5 197.2Q820.9 197.2 820.6 196.9Q820.2 196.7 820.0 196.3Q819.8 195.9 819.8 195.4L819.8 195.4L819.8 194.9Q819.8 194.5 820.0 194.1Q820.2 193.7 820.6 193.4Q820.9 193.2 821.5 193.2L821.5 193.2Q822.1 193.2 822.4 193.4Q822.8 193.7 823.0 194.1Q823.2 194.5 823.2 194.9L823.2 194.9L823.2 195.4Q823.2 195.9 823.0 196.3Q822.8 196.7 822.4 196.9Q822.0 197.2 821.5 197.2ZM821.5 196.4L821.5 196.4Q821.9 196.4 822.1 196.1Q822.3 195.8 822.3 195.4L822.3 195.4L822.3 194.9Q822.3 194.6 822.1 194.2Q821.9 193.9 821.5 193.9L821.5 193.9Q821.1 193.9 820.9 194.2Q820.7 194.6 820.7 194.9L820.7 194.9L820.7 195.4Q820.7 195.8 820.9 196.1Q821.0 196.4 821.5 196.4ZM816.1 197L815.1 197L821.1 188.3L822.1 188.3L816.1 197Z "/></g><clipPath id="satori_cp-id-1-4-1" clip-path="url(#satori_cp-id)"><path x="35" y="203" width="790" height="8" d="M39,203 h782 a4,4 0 0 1 4,4 v0 a4,4 0 0 1 -4,4 h-782 a4,4 0 0 1 -4,-4 v0 a4,4 0 0 1 4,-4"/></clipPath><mask id="satori_om-id-1-4-1"><rect x="35" y="203" width="790" height="8" fill="#fff" mask="url(#satori_om-id)"/></mask><path x="35" y="203" width="790" height="8" fill="rgba(201,209,217,0.08)" d="M39,203 h782 a4,4 0 0 1 4,4 v0 a4,4 0 0 1 -4,4 h-782 a4,4 0 0 1 -4,-4 v0 a4,4 0 0 1 4,-4" clip-path="url(#satori_cp-id)" mask="url(#satori_om-id)"/><mask id="satori_om-id-1-4-1-0"><rect x="35" y="203" width="87" height="8" fill="#fff" mask="url(#satori_om-id-1-4-1)"/></mask><path x="35" y="203" width="87" height="8" fill="#e34c26" d="M39,203 h79 a4,4 0 0 1 4,4 v0 a4,4 0 0 1 -4,4 h-79 a4,4 0 0 1 -4,-4 v0 a4,4 0 0 1 4,-4" clip-path="url(#satori_cp-id-1-4-1)" mask="url(#satori_om-id-1-4-1)"/><style>

    @keyframes fillbar { 0% { width:0; } 100% { width:100%; } }
    .langbar { animation: fillbar 1.7s ease-out forwards; }
  
</style>
</svg>